<mxfile host="app.diagrams.net" modified="2021-03-14T00:23:34.683Z" agent="5.0 (Macintosh; Intel Mac OS X 11_2_2) AppleWebKit/537.36 (KHTML, like Gecko) Chrome/89.0.4389.82 Safari/537.36" etag="AVVc8gInQ1gYIcYWHiRE" version="14.4.7" type="github">
  <diagram id="-yEpa4g7iN3uwMaF_sMH" name="ページ1">
    <mxGraphModel dx="684" dy="613" grid="1" gridSize="10" guides="1" tooltips="1" connect="1" arrows="1" fold="1" page="1" pageScale="1" pageWidth="827" pageHeight="1169" math="0" shadow="0">
      <root>
        <mxCell id="0" />
        <mxCell id="1" parent="0" />
        <mxCell id="rTFpoOhSLpEY50gnlQkP-1" value="会員情報　users_table" style="shape=table;startSize=30;container=1;collapsible=1;childLayout=tableLayout;fixedRows=1;rowLines=0;fontStyle=1;align=center;resizeLast=1;" parent="1" vertex="1">
          <mxGeometry x="41" y="120" width="439" height="160" as="geometry" />
        </mxCell>
        <mxCell id="rTFpoOhSLpEY50gnlQkP-2" value="" style="shape=partialRectangle;collapsible=0;dropTarget=0;pointerEvents=0;fillColor=none;top=0;left=0;bottom=1;right=0;points=[[0,0.5],[1,0.5]];portConstraint=eastwest;" parent="rTFpoOhSLpEY50gnlQkP-1" vertex="1">
          <mxGeometry y="30" width="439" height="30" as="geometry" />
        </mxCell>
        <mxCell id="rTFpoOhSLpEY50gnlQkP-3" value="" style="shape=partialRectangle;connectable=0;fillColor=none;top=0;left=0;bottom=0;right=0;fontStyle=1;overflow=hidden;" parent="rTFpoOhSLpEY50gnlQkP-2" vertex="1">
          <mxGeometry width="30" height="30" as="geometry" />
        </mxCell>
        <mxCell id="rTFpoOhSLpEY50gnlQkP-4" value="" style="shape=partialRectangle;connectable=0;fillColor=none;top=0;left=0;bottom=0;right=0;align=left;spacingLeft=6;fontStyle=5;overflow=hidden;" parent="rTFpoOhSLpEY50gnlQkP-2" vertex="1">
          <mxGeometry x="30" width="409" height="30" as="geometry" />
        </mxCell>
        <mxCell id="rTFpoOhSLpEY50gnlQkP-5" value="" style="shape=partialRectangle;collapsible=0;dropTarget=0;pointerEvents=0;fillColor=none;top=0;left=0;bottom=0;right=0;points=[[0,0.5],[1,0.5]];portConstraint=eastwest;" parent="rTFpoOhSLpEY50gnlQkP-1" vertex="1">
          <mxGeometry y="60" width="439" height="20" as="geometry" />
        </mxCell>
        <mxCell id="rTFpoOhSLpEY50gnlQkP-6" value="" style="shape=partialRectangle;connectable=0;fillColor=none;top=0;left=0;bottom=0;right=0;editable=1;overflow=hidden;" parent="rTFpoOhSLpEY50gnlQkP-5" vertex="1">
          <mxGeometry width="30" height="20" as="geometry" />
        </mxCell>
        <mxCell id="rTFpoOhSLpEY50gnlQkP-7" value="" style="shape=partialRectangle;connectable=0;fillColor=none;top=0;left=0;bottom=0;right=0;align=left;spacingLeft=6;overflow=hidden;" parent="rTFpoOhSLpEY50gnlQkP-5" vertex="1">
          <mxGeometry x="30" width="409" height="20" as="geometry" />
        </mxCell>
        <mxCell id="rTFpoOhSLpEY50gnlQkP-8" value="" style="shape=partialRectangle;collapsible=0;dropTarget=0;pointerEvents=0;fillColor=none;top=0;left=0;bottom=0;right=0;points=[[0,0.5],[1,0.5]];portConstraint=eastwest;" parent="rTFpoOhSLpEY50gnlQkP-1" vertex="1">
          <mxGeometry y="80" width="439" height="30" as="geometry" />
        </mxCell>
        <mxCell id="rTFpoOhSLpEY50gnlQkP-9" value="" style="shape=partialRectangle;connectable=0;fillColor=none;top=0;left=0;bottom=0;right=0;editable=1;overflow=hidden;" parent="rTFpoOhSLpEY50gnlQkP-8" vertex="1">
          <mxGeometry width="30" height="30" as="geometry" />
        </mxCell>
        <mxCell id="rTFpoOhSLpEY50gnlQkP-10" value="name             会員名                               varcher(10)                           " style="shape=partialRectangle;connectable=0;fillColor=none;top=0;left=0;bottom=0;right=0;align=left;spacingLeft=6;overflow=hidden;" parent="rTFpoOhSLpEY50gnlQkP-8" vertex="1">
          <mxGeometry x="30" width="409" height="30" as="geometry" />
        </mxCell>
        <mxCell id="rTFpoOhSLpEY50gnlQkP-11" value="" style="shape=partialRectangle;collapsible=0;dropTarget=0;pointerEvents=0;fillColor=none;top=0;left=0;bottom=0;right=0;points=[[0,0.5],[1,0.5]];portConstraint=eastwest;" parent="rTFpoOhSLpEY50gnlQkP-1" vertex="1">
          <mxGeometry y="110" width="439" height="20" as="geometry" />
        </mxCell>
        <mxCell id="rTFpoOhSLpEY50gnlQkP-12" value="" style="shape=partialRectangle;connectable=0;fillColor=none;top=0;left=0;bottom=0;right=0;editable=1;overflow=hidden;" parent="rTFpoOhSLpEY50gnlQkP-11" vertex="1">
          <mxGeometry width="30" height="20" as="geometry" />
        </mxCell>
        <mxCell id="rTFpoOhSLpEY50gnlQkP-13" value="email             メールアドレス                  varcher(50)" style="shape=partialRectangle;connectable=0;fillColor=none;top=0;left=0;bottom=0;right=0;align=left;spacingLeft=6;overflow=hidden;" parent="rTFpoOhSLpEY50gnlQkP-11" vertex="1">
          <mxGeometry x="30" width="409" height="20" as="geometry" />
        </mxCell>
        <mxCell id="rTFpoOhSLpEY50gnlQkP-14" value="" style="endArrow=none;html=1;" parent="1" edge="1">
          <mxGeometry width="50" height="50" relative="1" as="geometry">
            <mxPoint x="140" y="210.00000000000023" as="sourcePoint" />
            <mxPoint x="140" y="150.00000000000023" as="targetPoint" />
            <Array as="points">
              <mxPoint x="140" y="280" />
            </Array>
          </mxGeometry>
        </mxCell>
        <mxCell id="rTFpoOhSLpEY50gnlQkP-15" value="" style="endArrow=none;html=1;" parent="1" edge="1">
          <mxGeometry width="50" height="50" relative="1" as="geometry">
            <mxPoint x="260" y="210.00000000000023" as="sourcePoint" />
            <mxPoint x="260" y="150.00000000000023" as="targetPoint" />
            <Array as="points">
              <mxPoint x="260" y="280" />
            </Array>
          </mxGeometry>
        </mxCell>
        <mxCell id="rTFpoOhSLpEY50gnlQkP-16" value="password　  ログインパスワード            varcher(6)" style="shape=partialRectangle;connectable=0;fillColor=none;top=0;left=0;bottom=0;right=0;align=left;spacingLeft=6;overflow=hidden;" parent="1" vertex="1">
          <mxGeometry x="70" y="250" width="290" height="20" as="geometry" />
        </mxCell>
        <mxCell id="rTFpoOhSLpEY50gnlQkP-17" value="投稿　posts_table" style="shape=table;startSize=30;container=1;collapsible=1;childLayout=tableLayout;fixedRows=1;rowLines=0;fontStyle=1;align=center;resizeLast=1;" parent="1" vertex="1">
          <mxGeometry x="40" y="330" width="440" height="250" as="geometry" />
        </mxCell>
        <mxCell id="rTFpoOhSLpEY50gnlQkP-18" value="" style="shape=partialRectangle;collapsible=0;dropTarget=0;pointerEvents=0;fillColor=none;top=0;left=0;bottom=1;right=0;points=[[0,0.5],[1,0.5]];portConstraint=eastwest;" parent="rTFpoOhSLpEY50gnlQkP-17" vertex="1">
          <mxGeometry y="30" width="440" height="30" as="geometry" />
        </mxCell>
        <mxCell id="rTFpoOhSLpEY50gnlQkP-19" value="" style="shape=partialRectangle;connectable=0;fillColor=none;top=0;left=0;bottom=0;right=0;fontStyle=1;overflow=hidden;" parent="rTFpoOhSLpEY50gnlQkP-18" vertex="1">
          <mxGeometry width="30" height="30" as="geometry" />
        </mxCell>
        <mxCell id="rTFpoOhSLpEY50gnlQkP-20" value="" style="shape=partialRectangle;connectable=0;fillColor=none;top=0;left=0;bottom=0;right=0;align=left;spacingLeft=6;fontStyle=5;overflow=hidden;" parent="rTFpoOhSLpEY50gnlQkP-18" vertex="1">
          <mxGeometry x="30" width="410" height="30" as="geometry" />
        </mxCell>
        <mxCell id="rTFpoOhSLpEY50gnlQkP-47" value="" style="shape=partialRectangle;collapsible=0;dropTarget=0;pointerEvents=0;fillColor=none;top=0;left=0;bottom=0;right=0;points=[[0,0.5],[1,0.5]];portConstraint=eastwest;" parent="rTFpoOhSLpEY50gnlQkP-17" vertex="1">
          <mxGeometry y="60" width="440" height="30" as="geometry" />
        </mxCell>
        <mxCell id="rTFpoOhSLpEY50gnlQkP-48" value="" style="shape=partialRectangle;connectable=0;fillColor=none;top=0;left=0;bottom=0;right=0;editable=1;overflow=hidden;" parent="rTFpoOhSLpEY50gnlQkP-47" vertex="1">
          <mxGeometry width="30" height="30" as="geometry" />
        </mxCell>
        <mxCell id="rTFpoOhSLpEY50gnlQkP-49" value="" style="shape=partialRectangle;connectable=0;fillColor=none;top=0;left=0;bottom=0;right=0;align=left;spacingLeft=6;overflow=hidden;" parent="rTFpoOhSLpEY50gnlQkP-47" vertex="1">
          <mxGeometry x="30" width="410" height="30" as="geometry" />
        </mxCell>
        <mxCell id="rTFpoOhSLpEY50gnlQkP-21" value="" style="endArrow=none;html=1;" parent="1" edge="1">
          <mxGeometry width="50" height="50" relative="1" as="geometry">
            <mxPoint x="150" y="420" as="sourcePoint" />
            <mxPoint x="150" y="360" as="targetPoint" />
            <Array as="points">
              <mxPoint x="150" y="580" />
            </Array>
          </mxGeometry>
        </mxCell>
        <mxCell id="rTFpoOhSLpEY50gnlQkP-22" value="" style="endArrow=none;html=1;" parent="1" edge="1">
          <mxGeometry width="50" height="50" relative="1" as="geometry">
            <mxPoint x="259" y="420" as="sourcePoint" />
            <mxPoint x="259" y="360" as="targetPoint" />
            <Array as="points">
              <mxPoint x="259" y="580" />
            </Array>
          </mxGeometry>
        </mxCell>
        <mxCell id="rTFpoOhSLpEY50gnlQkP-23" value="text                    コメント記入                  varchar(100)" style="shape=partialRectangle;connectable=0;fillColor=none;top=0;left=0;bottom=0;right=0;align=left;spacingLeft=6;overflow=hidden;" parent="1" vertex="1">
          <mxGeometry x="69" y="530" width="299" height="20" as="geometry" />
        </mxCell>
        <mxCell id="rTFpoOhSLpEY50gnlQkP-24" value="score                 思い出度合                      varchar(3)" style="shape=partialRectangle;connectable=0;fillColor=none;top=0;left=0;bottom=0;right=0;align=left;spacingLeft=6;overflow=hidden;" parent="1" vertex="1">
          <mxGeometry x="69" y="510" width="290" height="20" as="geometry" />
        </mxCell>
        <mxCell id="rTFpoOhSLpEY50gnlQkP-25" value="user_id　　　　ユーザーID                      int" style="shape=partialRectangle;connectable=0;fillColor=none;top=0;left=0;bottom=0;right=0;align=left;spacingLeft=6;overflow=hidden;" parent="1" vertex="1">
          <mxGeometry x="69" y="400" width="290" height="20" as="geometry" />
        </mxCell>
        <mxCell id="rTFpoOhSLpEY50gnlQkP-26" value="date                   投稿日                             date" style="shape=partialRectangle;connectable=0;fillColor=none;top=0;left=0;bottom=0;right=0;align=left;spacingLeft=6;overflow=hidden;" parent="1" vertex="1">
          <mxGeometry x="70" y="550" width="290" height="20" as="geometry" />
        </mxCell>
        <mxCell id="rTFpoOhSLpEY50gnlQkP-39" value="type" style="text;html=1;align=center;verticalAlign=middle;resizable=0;points=[];autosize=1;" parent="1" vertex="1">
          <mxGeometry x="330" y="360" width="40" height="20" as="geometry" />
        </mxCell>
        <mxCell id="rTFpoOhSLpEY50gnlQkP-40" value="user_id           ユーザーID                        varcher(10)                           " style="shape=partialRectangle;connectable=0;fillColor=none;top=0;left=0;bottom=0;right=0;align=left;spacingLeft=6;overflow=hidden;" parent="1" vertex="1">
          <mxGeometry x="72" y="180" width="409" height="30" as="geometry" />
        </mxCell>
        <mxCell id="rTFpoOhSLpEY50gnlQkP-41" value="type" style="text;html=1;align=center;verticalAlign=middle;resizable=0;points=[];autosize=1;" parent="1" vertex="1">
          <mxGeometry x="330" y="160" width="40" height="20" as="geometry" />
        </mxCell>
        <mxCell id="rTFpoOhSLpEY50gnlQkP-54" value="user_name　　投稿者            　　　　   varchar(10)" style="shape=partialRectangle;connectable=0;fillColor=none;top=0;left=0;bottom=0;right=0;align=left;spacingLeft=6;overflow=hidden;" parent="1" vertex="1">
          <mxGeometry x="69" y="430" width="330" height="20" as="geometry" />
        </mxCell>
        <mxCell id="rTFpoOhSLpEY50gnlQkP-57" value="title                   行き先　場所                   varchar(20)" style="shape=partialRectangle;connectable=0;fillColor=none;top=0;left=0;bottom=0;right=0;align=left;spacingLeft=6;overflow=hidden;" parent="1" vertex="1">
          <mxGeometry x="69" y="480" width="410" height="30" as="geometry" />
        </mxCell>
        <mxCell id="rTFpoOhSLpEY50gnlQkP-58" value="post_id             投稿ID　　　　　　　　  int" style="shape=partialRectangle;connectable=0;fillColor=none;top=0;left=0;bottom=0;right=0;align=left;spacingLeft=6;overflow=hidden;" parent="1" vertex="1">
          <mxGeometry x="70" y="460" width="290" height="20" as="geometry" />
        </mxCell>
        <mxCell id="rTFpoOhSLpEY50gnlQkP-60" value="PK" style="text;html=1;align=center;verticalAlign=middle;resizable=0;points=[];autosize=1;" parent="1" vertex="1">
          <mxGeometry x="40" y="185" width="30" height="20" as="geometry" />
        </mxCell>
        <mxCell id="rTFpoOhSLpEY50gnlQkP-61" value="PK" style="text;html=1;align=center;verticalAlign=middle;resizable=0;points=[];autosize=1;" parent="1" vertex="1">
          <mxGeometry x="39" y="430" width="30" height="20" as="geometry" />
        </mxCell>
      </root>
    </mxGraphModel>
  </diagram>
</mxfile>
